<?xml version="1.0" encoding="UTF-8"?>
<!DOCTYPE svg PUBLIC "-//W3C//DTD SVG 1.1//EN" "http://www.w3.org/Graphics/SVG/1.1/DTD/svg11.dtd">
<svg xmlns="http://www.w3.org/2000/svg" version="1.1" width="2818px" height="680px" style="shape-rendering:geometricPrecision; text-rendering:geometricPrecision; image-rendering:optimizeQuality; fill-rule:evenodd; clip-rule:evenodd" xmlns:xlink="http://www.w3.org/1999/xlink">
<g><path style="opacity:0.987" fill="#00aeef" d="M -0.5,-0.5 C 16.1667,-0.5 32.8333,-0.5 49.5,-0.5C 145.799,96.2988 242.299,192.965 339,289.5C 435.701,192.965 532.201,96.2988 628.5,-0.5C 645.167,-0.5 661.833,-0.5 678.5,-0.5C 678.667,16.17 678.5,32.8367 678,49.5C 581.5,146 485,242.5 388.5,339C 485,435.5 581.5,532 678,628.5C 678.5,645.497 678.667,662.497 678.5,679.5C 662.167,679.5 645.833,679.5 629.5,679.5C 532.868,582.368 436.035,485.368 339,388.5C 241.965,485.368 145.132,582.368 48.5,679.5C 32.1667,679.5 15.8333,679.5 -0.5,679.5C -0.5,662.5 -0.5,645.5 -0.5,628.5C 96.2988,532.201 192.965,435.701 289.5,339C 192.965,242.299 96.2988,145.799 -0.5,49.5C -0.5,32.8333 -0.5,16.1667 -0.5,-0.5 Z"/></g>
<g><path style="opacity:0.986" fill="#00aeef" d="M 144.5,-0.5 C 177.5,-0.5 210.5,-0.5 243.5,-0.5C 275.132,31.632 306.965,63.632 339,95.5C 371.035,63.632 402.868,31.632 434.5,-0.5C 467.5,-0.5 500.5,-0.5 533.5,-0.5C 469.162,64.6718 404.328,129.338 339,193.5C 273.672,129.338 208.838,64.6718 144.5,-0.5 Z"/></g>
<g><path style="opacity:0.981" fill="#00aeef" d="M -0.5,144.5 C 64.6718,208.838 129.338,273.672 193.5,339C 129.338,404.328 64.6718,469.162 -0.5,533.5C -0.5,500.5 -0.5,467.5 -0.5,434.5C 31.479,403.188 63.1457,371.521 94.5,339.5C 63.1457,307.479 31.479,275.812 -0.5,244.5C -0.5,211.167 -0.5,177.833 -0.5,144.5 Z"/></g>
<g><path style="opacity:0.985" fill="#00aeef" d="M 677.5,144.5 C 678.664,177.331 678.831,210.331 678,243.5C 646.167,275.333 614.333,307.167 582.5,339C 614.333,370.833 646.167,402.667 678,434.5C 678.667,467.5 678.667,500.5 678,533.5C 613.127,468.96 548.627,404.127 484.5,339C 548.661,274.005 612.995,209.172 677.5,144.5 Z"/></g>
<g><path style="opacity:0.989" fill="#211c34" d="M 1192.5,161.5 C 1223.17,161.167 1253.84,161.5 1284.5,162.5C 1306.49,240.117 1328.32,317.783 1350,395.5C 1371.98,317.929 1393.81,240.262 1415.5,162.5C 1446.83,161.5 1478.16,161.167 1509.5,161.5C 1537.17,286.833 1564.83,412.167 1592.5,537.5C 1563.83,537.5 1535.17,537.5 1506.5,537.5C 1489.97,461.72 1472.97,386.053 1455.5,310.5C 1432.56,385.981 1410.23,461.648 1388.5,537.5C 1359.83,537.833 1331.16,537.5 1302.5,536.5C 1283.18,460.881 1264.01,385.215 1245,309.5C 1220.59,384.906 1198.09,460.906 1177.5,537.5C 1149.17,537.5 1120.83,537.5 1092.5,537.5C 1125.62,412.125 1158.96,286.791 1192.5,161.5 Z"/></g>
<g><path style="opacity:0.989" fill="#211c34" d="M 1627.5,161.5 C 1655.83,161.5 1684.17,161.5 1712.5,161.5C 1712.5,261.5 1712.5,361.5 1712.5,461.5C 1772.83,461.5 1833.17,461.5 1893.5,461.5C 1893.5,486.833 1893.5,512.167 1893.5,537.5C 1804.83,537.5 1716.17,537.5 1627.5,537.5C 1627.5,412.167 1627.5,286.833 1627.5,161.5 Z"/></g>
<g><path style="opacity:0.986" fill="#211c34" d="M 2255.5,161.5 C 2302.62,158.937 2344.62,172.103 2381.5,201C 2369.38,221.954 2357.05,242.787 2344.5,263.5C 2322.9,242.87 2297.24,230.537 2267.5,226.5C 2245.84,227.977 2236.67,239.311 2240,260.5C 2242.45,268.731 2246.45,276.064 2252,282.5C 2284.33,321.5 2316.67,360.5 2349,399.5C 2356.26,383.734 2361.92,367.401 2366,350.5C 2366.52,349.484 2367.35,348.818 2368.5,348.5C 2390.38,354.429 2412.22,360.429 2434,366.5C 2427.83,399.182 2415.66,429.516 2397.5,457.5C 2419.31,484.479 2441.31,511.312 2463.5,538C 2432.16,538.833 2400.83,538.667 2369.5,537.5C 2362.52,528.688 2355.36,520.021 2348,511.5C 2323.09,531.477 2294.59,542.644 2262.5,545C 2232.2,547.406 2203.53,541.739 2176.5,528C 2146.07,509.513 2129.57,482.346 2127,446.5C 2124.91,406.742 2139.41,374.576 2170.5,350C 2179.54,343.488 2188.54,336.988 2197.5,330.5C 2182.64,314.12 2172.47,295.12 2167,273.5C 2158.8,218.713 2180.97,182.88 2233.5,166C 2240.95,164.375 2248.28,162.875 2255.5,161.5 Z M 2240.5,384.5 C 2242.39,384.297 2243.89,384.963 2245,386.5C 2264.33,409.833 2283.67,433.167 2303,456.5C 2303.51,457.996 2303.01,459.163 2301.5,460C 2277.24,475.546 2251.57,478.546 2224.5,469C 2205.61,456.67 2200.11,439.836 2208,418.5C 2211.22,411.956 2215.22,405.956 2220,400.5C 2226.63,394.785 2233.46,389.451 2240.5,384.5 Z"/></g>
<g><path style="opacity:0.988" fill="#211c34" d="M 786.5,162.5 C 817.5,162.5 848.5,162.5 879.5,162.5C 898.996,226.481 918.496,290.481 938,354.5C 944.155,373.469 950.988,392.135 958.5,410.5C 968.941,385.013 978.108,359.013 986,332.5C 1002.67,275.665 1019.83,218.998 1037.5,162.5C 1068.5,162.5 1099.5,162.5 1130.5,162.5C 1090.82,287.528 1050.99,412.528 1011,537.5C 993.572,538.163 976.072,538.497 958.5,538.5C 940.928,538.497 923.428,538.163 906,537.5C 865.699,412.622 825.866,287.622 786.5,162.5 Z"/></g>
<g><path style="opacity:0.988" fill="#211c34" d="M 1797.5,163.5 C 1831.83,163.333 1866.17,163.5 1900.5,164C 1929.34,210.988 1958.34,257.822 1987.5,304.5C 2016.96,257.751 2046.29,210.917 2075.5,164C 2109.17,163.333 2142.83,163.333 2176.5,164C 2127.46,238.586 2078.29,313.086 2029,387.5C 2028.5,437.832 2028.33,488.166 2028.5,538.5C 2000.17,538.5 1971.83,538.5 1943.5,538.5C 1943.67,488.499 1943.5,438.499 1943,388.5C 1896.92,317.329 1850.58,246.329 1804,175.5C 1801.55,171.606 1799.39,167.606 1797.5,163.5 Z"/></g>
<g><path style="opacity:0.989" fill="#211c34" d="M 2817.5,511.5 C 2817.5,511.833 2817.5,512.167 2817.5,512.5C 2795.85,527.808 2774.18,543.142 2752.5,558.5C 2739.88,552.038 2728.21,544.205 2717.5,535C 2675.74,495.579 2640.07,451.412 2610.5,402.5C 2590.51,401.5 2570.51,401.167 2550.5,401.5C 2550.5,447.167 2550.5,492.833 2550.5,538.5C 2522.17,538.5 2493.83,538.5 2465.5,538.5C 2465.5,413.5 2465.5,288.5 2465.5,163.5C 2532.18,163.043 2598.85,163.543 2665.5,165C 2695.66,167.492 2722.66,177.826 2746.5,196C 2776.48,224.625 2787.65,259.459 2780,300.5C 2768.23,343.435 2741.4,372.435 2699.5,387.5C 2729.58,437.581 2768.91,478.914 2817.5,511.5 Z M 2550.5,239.5 C 2582.84,239.333 2615.17,239.5 2647.5,240C 2663.24,240.242 2676.74,245.742 2688,256.5C 2699.64,273.061 2699.3,289.395 2687,305.5C 2677.51,315.164 2666.01,320.997 2652.5,323C 2618.5,323.5 2584.5,323.667 2550.5,323.5C 2550.5,295.5 2550.5,267.5 2550.5,239.5 Z"/></g>
<g><path style="opacity:0.975" fill="#00aeef" d="M 533.5,679.5 C 500.5,679.5 467.5,679.5 434.5,679.5C 402.854,647.188 370.854,615.188 338.5,583.5C 306.146,615.188 274.146,647.188 242.5,679.5C 209.833,679.5 177.167,679.5 144.5,679.5C 144.369,678.761 144.536,678.094 145,677.5C 209.373,612.793 274.04,548.46 339,484.5C 403.96,548.46 468.627,612.793 533,677.5C 533.464,678.094 533.631,678.761 533.5,679.5 Z"/></g>
</svg>
