<?xml version="1.0" encoding="utf-8"?>
<!-- Generator: Adobe Illustrator 28.1.0, SVG Export Plug-In . SVG Version: 6.00 Build 0)  -->
<svg version="1.1" id="Layer_1" xmlns="http://www.w3.org/2000/svg" xmlns:xlink="http://www.w3.org/1999/xlink" x="0px" y="0px"
	 viewBox="0 0 1079.395 314.628" style="enable-background:new 0 0 1079.395 314.628;" xml:space="preserve">
<g>
	<polygon points="284.938,0 157.319,127.607 29.7,0 0,0 0,29.678 127.63,157.309 0,284.926 0,314.616 29.7,314.616 157.319,187.009 
		284.938,314.616 314.638,314.616 314.638,284.926 187.019,157.309 314.638,29.678 314.638,0 	"/>
	<polygon points="184.826,0 157.319,27.497 129.811,0 72.444,0 157.319,84.863 242.182,0 	"/>
	<polygon points="72.444,314.628 129.8,314.628 157.308,287.121 184.815,314.628 242.171,314.628 157.308,229.765 	"/>
	<polygon points="287.131,157.309 314.638,129.802 314.638,72.434 229.775,157.309 314.638,242.172 314.638,184.804 	"/>
	<polygon points="0,129.79 27.507,157.297 0,184.804 0,242.16 84.863,157.297 0,72.434 	"/>
	<polygon points="778.21,51.04 745.26,170.671 712.31,51.04 643.797,51.04 605.097,263.588 670.043,263.588 684.541,148.515 
		716.229,263.588 774.381,263.588 806.07,148.515 820.579,263.588 885.513,263.588 846.723,51.04 	"/>
	<polygon points="550.173,51.04 501.498,190.327 452.21,51.04 385.071,51.04 465.947,263.588 537.05,263.588 617.323,51.04 	"/>
	<polygon points="912.078,51.04 912.078,263.588 1058.547,263.588 1079.395,207.245 974.354,207.245 974.354,51.04 	"/>
</g>
</svg>
